HIERARCHY
ROOT Hips
{
	OFFSET 0.000000 0.000000 0.000000 
	CHANNELS 6 Xposition Yposition Zposition Zrotation Yrotation Xrotation
	JOINT LeftUpLeg
	{
		OFFSET 1.363060 -1.794630 0.839290 
		CHANNELS 3 Zrotation Yrotation Xrotation
		JOINT LeftLeg
		{
			OFFSET 2.448110 -6.726130 0.000000 
			CHANNELS 3 Zrotation Yrotation Xrotation
			JOINT LeftFoot
			{
				OFFSET 2.562200 -7.039590 0.000000 
				CHANNELS 3 Zrotation Yrotation Xrotation
				JOINT LeftToeBase
				{
					OFFSET 0.157640 -0.433110 2.322550 
					CHANNELS 3 Zrotation Yrotation Xrotation
					End Site
					{
						OFFSET 0.000000 0.000000 0.000000 
					}
				}
			}
		}
	}
	JOINT RightUpLeg
	{
		OFFSET -1.305520 -1.794630 0.839290 
		CHANNELS 3 Zrotation Yrotation Xrotation
		JOINT RightLeg
		{
			OFFSET -2.542530 -6.985550 0.000000 
			CHANNELS 3 Zrotation Yrotation Xrotation
			JOINT RightFoot
			{
				OFFSET -2.568260 -7.056230 0.000000 
				CHANNELS 3 Zrotation Yrotation Xrotation
				JOINT RightToeBase
				{
					OFFSET -0.164730 -0.452590 2.363150 
					CHANNELS 3 Zrotation Yrotation Xrotation
					End Site
					{
						OFFSET 0.000000 0.000000 0.000000 
					}
				}
			}
		}
	}
	JOINT Spine
	{
		OFFSET 0.028270 2.035590 -0.193380 
		CHANNELS 3 Zrotation Yrotation Xrotation
		JOINT Spine1
		{
			OFFSET 0.056720 2.048850 -0.042750 
			CHANNELS 3 Zrotation Yrotation Xrotation
			JOINT Neck1
			{
				OFFSET -0.054170 1.746240 0.172020 
				CHANNELS 3 Zrotation Yrotation Xrotation
				JOINT Head
				{
					OFFSET 0.104070 1.761360 -0.123970 
					CHANNELS 3 Zrotation Yrotation Xrotation
					End Site
					{
						OFFSET 0.000000 0.000000 0.000000 
					}
				}
			}
			JOINT LeftArm
			{
				OFFSET 3.362410 1.200890 -0.311210 
				CHANNELS 3 Zrotation Yrotation Xrotation
				JOINT LeftForeArm
				{
					OFFSET 4.983000 -0.000000 -0.000000 
					CHANNELS 3 Zrotation Yrotation Xrotation
					JOINT LeftHand
					{
						OFFSET 3.483560 -0.000000 -0.000000 
						CHANNELS 3 Zrotation Yrotation Xrotation
						JOINT LeftHandIndex1
						{
							OFFSET 0.715260 -0.000000 -0.000000 
							CHANNELS 3 Zrotation Yrotation Xrotation
							End Site
							{
								OFFSET 0.000000 0.000000 0.000000 
							}
						}
					}
				}
			}
			JOINT RightArm
			{
				OFFSET -3.136600 1.374050 -0.404650 
				CHANNELS 3 Zrotation Yrotation Xrotation
				JOINT RightForeArm
				{
					OFFSET -5.241900 -0.000000 -0.000000 
					CHANNELS 3 Zrotation Yrotation Xrotation
					JOINT RightHand
					{
						OFFSET -3.444170 -0.000000 -0.000000 
						CHANNELS 3 Zrotation Yrotation Xrotation
						JOINT RightHandIndex1
						{
							OFFSET -0.622530 -0.000000 -0.000000 
							CHANNELS 3 Zrotation Yrotation Xrotation
							End Site
							{
								OFFSET 0.000000 0.000000 0.000000 
							}
						}
					}
				}
			}
		}
	}
}
MOTION
Frames: 16
Frame Time: 0.041667
-16.379298 17.372175 -2.978334 -146.603216 80.276233 -141.019503 -16.764197 -9.167470 -11.066953 -0.749156 9.425064 25.961328 -1.066910 9.326584 -11.988746 4.931600 -13.306300 -40.526300 33.022788 18.553432 0.912416 2.536866 -6.702877 19.150185 3.055349 -27.907446 -24.171871 -0.000400 -0.130800 0.359400 1.452846 -0.735721 -3.507986 -0.611687 -0.945807 0.880114 1.079792 1.315397 19.018017 -2.330700 1.081500 17.444900 -87.208735 3.279470 31.796727 17.665628 -26.067476 -5.289577 -0.232377 -2.089635 -28.721413 -7.125000 0.000000 0.000000 85.910580 -3.704778 32.465792 -15.520077 26.950246 -4.002756 0.568652 -0.438377 1.394285 7.125000 0.000000 0.000000 
-16.370351 17.369789 -3.001894 -146.387769 80.301050 -140.840202 -16.839122 -8.995252 -11.064798 -0.741547 9.425066 25.973763 -1.054379 9.245638 -11.908268 4.302100 -12.551800 -37.713300 32.949119 18.396145 0.926532 2.525647 -6.701399 19.169858 3.036441 -27.795641 -24.048417 -0.000200 -0.099800 0.274200 1.472147 -0.758096 -3.503715 -0.518634 -0.960898 0.851628 1.169934 0.931371 19.102491 -2.336600 0.961400 17.488800 -87.149642 3.337660 31.461630 17.576398 -25.953896 -5.234536 -0.244407 -2.067382 -28.774058 -7.125000 0.000000 0.000000 85.883578 -3.545731 32.475410 -15.645253 27.107314 -4.058023 0.570352 -0.444381 1.486521 7.125000 0.000000 0.000000 
-16.362100 17.370684 -3.024161 -146.120452 80.319726 -140.586500 -16.888808 -8.798505 -11.099449 -0.733490 9.425149 25.984063 -1.038106 9.144642 -11.835805 3.630100 -11.651100 -34.508800 32.856574 18.115956 0.871979 2.510202 -6.700524 19.186627 2.975988 -27.524617 -23.912057 -0.001000 -0.202000 0.555000 1.478046 -0.738792 -3.494083 -0.445150 -0.956448 0.862799 1.415262 0.675141 19.208283 -2.153000 0.870000 17.534500 -87.068195 3.341667 31.238639 17.483972 -25.840375 -5.189479 -0.257506 -2.067045 -28.771466 -7.125000 0.000000 0.000000 85.936781 -3.493171 32.210604 -15.894304 27.444279 -4.177133 0.564104 -0.450786 1.438305 7.125000 0.000000 0.000000 
-16.356037 17.370684 -3.042750 -145.764439 80.337984 -140.263357 -16.913176 -8.718671 -11.078414 -0.721902 9.434626 26.026996 -1.007631 9.005815 -11.900107 2.894600 -10.522500 -30.685800 32.795729 17.820533 0.848773 2.502105 -6.679503 19.151980 2.929123 -27.283676 -23.693842 -0.000600 -0.156800 0.430900 1.487432 -0.745201 -3.476609 -0.336288 -0.969351 0.911672 1.720547 0.198676 19.350242 -1.927900 0.681900 17.640700 -86.996231 3.301474 30.999715 17.392055 -25.726282 -5.150398 -0.268948 -2.076366 -28.730947 -7.125000 0.000000 0.000000 85.974190 -3.444582 32.013688 -16.255485 27.926137 -4.353313 0.551512 -0.451256 1.024525 7.125000 0.000000 0.000000 
-16.352557 17.368597 -3.059649 -145.207557 80.311685 -139.692628 -16.878930 -8.666478 -11.122917 -0.710582 9.447603 26.074315 -0.985129 8.907852 -11.979722 1.613100 -8.009000 -22.741300 32.795144 17.613340 0.744437 2.503970 -6.666035 19.098120 2.966373 -27.310600 -23.227249 -0.002300 0.306500 -0.842200 1.480564 -0.719601 -3.454055 -0.382058 -0.962553 0.990791 1.865791 -0.182653 19.413398 -1.871900 0.555600 17.696200 -86.738606 3.194540 30.916085 17.288257 -25.601776 -5.109370 -0.269158 -2.085727 -28.676804 -7.125000 0.000000 0.000000 86.198545 -3.518473 31.727333 -16.524173 28.284688 -4.478919 0.563212 -0.464275 1.294011 7.125000 0.000000 0.000000 
-16.350967 17.366907 -3.078040 -144.774174 80.270383 -139.168638 -16.845897 -8.658145 -11.242090 -0.706022 9.460393 26.100691 -0.973616 8.856928 -12.020059 1.565300 -7.895000 -22.395600 32.765589 17.499494 0.510213 2.504476 -6.683263 19.090608 3.042366 -27.483810 -22.714759 -0.020700 0.928000 -2.550600 1.458041 -0.686896 -3.447278 -0.500139 -0.950422 1.050194 2.091906 -0.600836 19.452321 -1.745600 0.415300 17.701100 -86.431795 3.131218 30.888318 17.196632 -25.494506 -5.080090 -0.263986 -2.103179 -28.413524 -7.125000 0.000000 0.000000 86.547169 -3.725429 31.205742 -16.914285 28.806532 -4.671322 0.566993 -0.467882 1.477806 7.125000 0.000000 0.000000 
-16.348183 17.364024 -3.092752 -144.550395 80.333328 -138.978120 -16.904020 -8.436694 -11.278733 -0.691085 9.468755 26.140257 -0.946847 8.706036 -11.964328 1.546500 -7.849600 -22.258200 32.696344 17.379268 0.480982 2.495068 -6.686661 19.107116 3.040482 -27.424439 -22.518889 -0.031400 1.144200 -3.145700 1.444408 -0.675551 -3.430413 -0.515728 -0.950335 1.074043 2.368478 -0.970695 19.494280 -1.561300 0.288500 17.688900 -86.260356 3.094921 30.570689 17.051310 -25.318022 -5.021392 -0.271441 -2.110808 -27.838020 -7.125000 0.000000 0.000000 86.690326 -3.774439 31.120128 -17.266803 29.261872 -4.846755 0.567404 -0.463547 1.303681 7.125000 0.000000 0.000000 
-16.345301 17.356867 -3.100009 -144.302165 80.479614 -138.877869 -17.072159 -8.993717 -10.828851 -0.730317 9.463068 26.116753 -1.092569 9.560426 -12.259197 1.710100 -8.234200 -23.427600 32.655391 17.339508 0.647358 2.479737 -6.687219 19.157634 2.997311 -27.262192 -22.584976 -0.026400 1.049200 -2.884100 1.424660 -0.631579 -3.400552 -0.472245 -0.936325 1.075590 2.698551 -1.368598 19.530265 -1.343400 0.155800 17.678100 -86.063169 3.062256 30.362942 16.957548 -25.206658 -4.986499 -0.278453 -2.125273 -27.912788 -7.125000 0.000000 0.000000 86.732632 -3.699898 31.376680 -17.566691 29.636265 -4.994844 0.569783 -0.456093 0.946309 7.125000 0.000000 0.000000 
-16.342815 17.357761 -3.106470 -144.029030 80.615167 -138.665998 -17.132410 -8.682738 -10.815621 -0.716022 9.447892 26.110732 -1.017143 9.168082 -12.239013 1.605100 -7.990000 -22.683800 32.611541 17.394366 0.735136 2.465246 -6.705590 19.230745 2.952091 -27.117814 -22.749537 -0.015900 0.814500 -2.238600 1.417769 -0.620335 -3.385119 -0.402997 -0.938230 1.077469 2.979479 -1.735007 19.538603 -1.174000 0.037000 17.655500 -85.887093 3.060592 30.096326 16.878503 -25.115266 -4.956774 -0.285079 -2.133420 -27.904732 -7.125000 0.000000 0.000000 86.773297 -3.613571 31.639219 -17.855882 29.989573 -5.139202 0.570880 -0.446321 0.707171 7.125000 0.000000 0.000000 
-16.341125 17.360147 -3.113428 -143.647066 80.738272 -138.284960 -17.164592 -8.337476 -10.882264 -0.703151 9.432251 26.092768 -0.955019 8.817272 -12.138342 1.567900 -7.901200 -22.414500 32.563700 17.487971 0.769562 2.451901 -6.728147 19.300250 2.884964 -26.906104 -22.974473 -0.003700 0.391400 -1.075400 1.420685 -0.643143 -3.376852 -0.328576 -0.957623 1.088464 3.316813 -2.089346 19.537141 -0.951500 -0.079200 17.608900 -85.757354 3.103654 29.859824 16.844725 -25.079536 -4.944462 -0.288816 -2.135313 -27.805510 -7.125000 0.000000 0.000000 86.808223 -3.513869 31.796751 -18.115305 30.310847 -5.272601 0.565727 -0.441777 0.567680 7.125000 0.000000 0.000000 
-16.339038 17.359451 -3.116510 -142.842036 80.855272 -137.516221 -17.163007 -8.171068 -10.847329 -0.699662 9.418109 26.081624 -0.959353 8.827575 -12.106940 1.600600 -7.979300 -22.651200 32.601281 17.680197 0.859687 2.452836 -6.731001 19.307014 2.863956 -26.858240 -23.094982 -0.000800 0.178700 -0.491100 1.419316 -0.629277 -3.370532 -0.285503 -0.959329 1.078007 3.634333 -2.461986 19.582767 -0.735800 -0.202900 17.601100 -85.635664 3.152453 29.535884 16.779502 -24.998737 -4.913426 -0.296168 -2.130421 -27.601069 -7.125000 0.000000 0.000000 86.844739 -3.506304 32.027942 -18.334423 30.583377 -5.383385 0.567061 -0.443150 0.349797 7.125000 0.000000 0.000000 
-16.336056 17.357364 -3.114820 -141.962804 80.969637 -136.689823 -17.159626 -8.259803 -10.704326 -0.710885 9.405486 26.062925 -1.021450 9.163179 -12.162067 1.669600 -8.140900 -23.142900 32.676494 17.908707 0.948288 2.461424 -6.729820 19.291969 2.905394 -27.017377 -23.058366 -0.002000 0.289600 -0.795800 1.421209 -0.605653 -3.356392 -0.217170 -0.957628 1.099356 3.917257 -2.809435 19.607383 -0.548300 -0.321400 17.601700 -85.572762 3.115510 28.972691 16.653091 -24.838310 -4.854034 -0.313412 -2.120823 -27.063966 -7.125000 0.000000 0.000000 86.887420 -3.519333 32.327475 -18.523105 30.810125 -5.475264 0.579420 -0.440350 0.213533 7.125000 0.000000 0.000000 
-16.334664 17.356668 -3.111043 -141.463746 81.075576 -136.233479 -17.191599 -8.585289 -10.496464 -0.734466 9.398883 26.037730 -1.113778 9.679586 -12.289169 1.734100 -8.288700 -23.594500 32.728191 18.063886 1.058730 2.467252 -6.721562 19.275386 2.934220 -27.126810 -23.037184 -0.002100 0.293100 -0.805400 1.432959 -0.625448 -3.342127 -0.093825 -0.977460 1.128780 4.227791 -3.125349 19.590028 -0.340700 -0.430500 17.577700 -85.529227 3.092483 28.526046 16.578859 -24.746477 -4.820623 -0.325401 -2.113585 -26.600550 -7.125000 0.000000 0.000000 86.884910 -3.403271 32.579655 -18.666007 30.977401 -5.546974 0.583483 -0.434509 0.064737 7.125000 0.000000 0.000000 
-16.333670 17.359252 -3.106072 -140.995082 81.178200 -135.796750 -17.189088 -8.596465 -10.429517 -0.736879 9.391567 26.030599 -1.121388 9.733450 -12.346185 1.653700 -8.104100 -23.030800 32.758767 18.087420 1.139504 2.464375 -6.714431 19.270880 2.916301 -27.045463 -22.984034 -0.001100 0.217300 -0.597100 1.449814 -0.670377 -3.344598 0.044339 -1.008067 1.104179 4.560002 -3.422033 19.577456 -0.101700 -0.537800 17.549000 -85.507662 3.201174 28.404036 16.630274 -24.816720 -4.846027 -0.327267 -2.120602 -26.918526 -7.125000 0.000000 0.000000 86.783097 -3.168417 32.922633 -18.704673 31.018495 -5.566222 0.579320 -0.431871 -0.380505 7.125000 0.000000 0.000000 
-16.333073 17.362334 -3.099810 -140.454329 81.287152 -135.259736 -17.173647 -8.524204 -10.426218 -0.732469 9.387409 26.034065 -1.118076 9.708372 -12.325822 1.607900 -7.996600 -22.703800 32.764946 18.150608 1.136731 2.463268 -6.716089 19.266105 2.918492 -27.023664 -22.852792 -0.002800 0.344400 -0.946400 1.452150 -0.700861 -3.349965 0.104212 -1.029894 1.088557 4.862918 -3.724729 19.532163 0.108700 -0.649000 17.493900 -85.465071 3.296731 28.142951 16.635720 -24.822651 -4.846210 -0.326679 -2.116859 -26.916214 -7.125000 0.000000 0.000000 86.777688 -3.059305 33.161218 -18.737740 31.060422 -5.581444 0.580501 -0.434721 -0.662629 7.125000 0.000000 0.000000 
-16.335161 17.364024 -3.090863 -140.028529 81.377236 -134.829957 -17.153714 -8.580978 -10.407724 -0.730565 9.393703 26.054385 -1.146227 9.838027 -12.275540 1.646000 -8.086200 -22.976300 32.795124 18.350969 1.151135 2.475329 -6.709119 19.225800 2.966619 -27.198516 -22.784611 -0.006900 0.535400 -1.471100 1.450487 -0.749120 -3.347919 0.129551 -1.060835 1.090810 5.201106 -4.027677 19.440303 0.342900 -0.762700 17.404800 -85.422978 3.342642 27.803365 16.623033 -24.797782 -4.833058 -0.322527 -2.101794 -26.696797 -7.125000 0.000000 0.000000 86.831536 -3.061283 33.339765 -18.795341 31.137146 -5.609599 0.583032 -0.439446 -0.701991 7.125000 0.000000 0.000000 
